<?xml version="1.0" standalone="no"?>
<!DOCTYPE svg PUBLIC "-//W3C//DTD SVG 20010904//EN"
 "http://www.w3.org/TR/2001/REC-SVG-20010904/DTD/svg10.dtd">
<svg version="1.0" xmlns="http://www.w3.org/2000/svg"
 width="128.000000pt" height="128.000000pt" viewBox="0 0 128.000000 128.000000"
 preserveAspectRatio="xMidYMid meet">

<g transform="translate(0.000000,128.000000) scale(0.100000,-0.100000)"
fill="#000000" stroke="none">
<path d="M0 870 l0 -405 83 83 84 83 62 -160 c35 -89 67 -161 72 -161 18 0
139 52 139 60 0 4 -29 77 -64 161 l-64 154 134 5 134 5 -290 290 -290 290 0
-405z m406 -160 l-124 -5 69 -164 c38 -91 67 -165 66 -166 -13 -8 -111 -45
-112 -43 -1 2 -30 75 -64 163 -35 88 -65 162 -67 164 -3 3 -38 -28 -79 -69
l-75 -74 0 354 0 355 255 -255 255 -255 -124 -5z"/>
</g>
</svg>
