<svg width="542" height="333" viewBox="0 0 542 333" fill="none" xmlns="http://www.w3.org/2000/svg">
<rect width="500" height="333" rx="7" fill="#121212"/>
<path d="M164 0H535C538.866 0 542 3.13401 542 7V326C542 329.866 538.866 333 535 333H164V0Z" fill="#0E0E0E"/>
<path d="M0 7C0 3.13401 3.13401 0 7 0H535C538.866 0 542 3.13401 542 7V25H0V7Z" fill="#0C0C0C"/>
<path d="M524.444 8.5C524.331 8.5 524.217 8.54332 524.13 8.63021C523.957 8.80376 523.957 9.08513 524.13 9.25868L527.372 12.5L524.13 15.7413C523.957 15.9149 523.957 16.1962 524.13 16.3698C524.217 16.4567 524.331 16.5 524.444 16.5C524.558 16.5 524.672 16.4567 524.759 16.3698L528 13.1285L531.241 16.3698C531.415 16.5433 531.696 16.5433 531.87 16.3698C532.043 16.1962 532.043 15.9149 531.87 15.7413L528.628 12.5L531.87 9.25868C532.043 9.08513 532.043 8.80376 531.87 8.63021C531.696 8.45665 531.415 8.45665 531.241 8.63021L528 11.8715L524.759 8.63021C524.672 8.54332 524.558 8.5 524.444 8.5Z" fill="#E0DEDD"/>
<path d="M9.5 297C9.5 294.239 11.7386 292 14.5 292H151.5C154.261 292 156.5 294.239 156.5 297V317.5C156.5 320.261 154.261 322.5 151.5 322.5H14.5C11.7386 322.5 9.5 320.261 9.5 317.5V297Z" fill="#0E0E0E"/>
<path d="M44.88 312V308.028H44.028V307.032H44.88V304.932C44.88 304.212 45.04 303.66 45.36 303.276C45.688 302.892 46.168 302.7 46.8 302.7C46.968 302.7 47.152 302.724 47.352 302.772C47.56 302.82 47.74 302.9 47.892 303.012L47.424 303.816C47.352 303.744 47.272 303.696 47.184 303.672C47.096 303.64 47.008 303.624 46.92 303.624C46.624 303.624 46.396 303.724 46.236 303.924C46.076 304.124 45.996 304.464 45.996 304.944V307.032H47.412V308.028H45.996V312H44.88ZM48.372 302.712H49.488V312H48.372V302.712ZM51.2409 309.468C51.2409 308.972 51.3569 308.524 51.5889 308.124C51.8289 307.724 52.1569 307.408 52.5729 307.176C52.9889 306.944 53.4609 306.828 53.9889 306.828C54.5329 306.828 55.0089 306.944 55.4169 307.176C55.8249 307.408 56.1409 307.724 56.3649 308.124C56.5889 308.524 56.7009 308.972 56.7009 309.468C56.7009 309.964 56.5889 310.416 56.3649 310.824C56.1409 311.224 55.8209 311.54 55.4049 311.772C54.9969 312.004 54.5209 312.12 53.9769 312.12C53.4489 312.12 52.9769 312.012 52.5609 311.796C52.1529 311.572 51.8289 311.264 51.5889 310.872C51.3569 310.472 51.2409 310.004 51.2409 309.468ZM52.3569 309.48C52.3569 309.8 52.4289 310.092 52.5729 310.356C52.7169 310.612 52.9089 310.816 53.1489 310.968C53.3969 311.12 53.6689 311.196 53.9649 311.196C54.2769 311.196 54.5529 311.12 54.7929 310.968C55.0409 310.816 55.2329 310.612 55.3689 310.356C55.5049 310.092 55.5729 309.8 55.5729 309.48C55.5729 309.16 55.5049 308.872 55.3689 308.616C55.2329 308.352 55.0409 308.144 54.7929 307.992C54.5529 307.832 54.2769 307.752 53.9649 307.752C53.6609 307.752 53.3849 307.832 53.1369 307.992C52.8969 308.152 52.7049 308.364 52.5609 308.628C52.4249 308.884 52.3569 309.168 52.3569 309.48ZM60.516 312.12C60.052 312.12 59.628 312.02 59.244 311.82C58.868 311.62 58.568 311.328 58.344 310.944C58.128 310.552 58.02 310.076 58.02 309.516C58.02 308.964 58.136 308.488 58.368 308.088C58.6 307.68 58.908 307.368 59.292 307.152C59.684 306.936 60.112 306.828 60.576 306.828C61.04 306.828 61.432 306.936 61.752 307.152C62.072 307.36 62.316 307.608 62.484 307.896L62.412 308.088L62.52 307.032H63.552V312H62.436V310.704L62.556 310.992C62.524 311.072 62.452 311.176 62.34 311.304C62.236 311.424 62.092 311.548 61.908 311.676C61.732 311.804 61.528 311.912 61.296 312C61.064 312.08 60.804 312.12 60.516 312.12ZM60.816 311.196C61.096 311.196 61.348 311.144 61.572 311.04C61.796 310.936 61.98 310.792 62.124 310.608C62.276 310.416 62.38 310.188 62.436 309.924V308.952C62.372 308.712 62.26 308.504 62.1 308.328C61.94 308.144 61.748 308.004 61.524 307.908C61.3 307.804 61.052 307.752 60.78 307.752C60.484 307.752 60.212 307.824 59.964 307.968C59.716 308.112 59.516 308.312 59.364 308.568C59.22 308.824 59.148 309.124 59.148 309.468C59.148 309.788 59.224 310.08 59.376 310.344C59.528 310.608 59.732 310.816 59.988 310.968C60.244 311.12 60.52 311.196 60.816 311.196ZM66.2032 304.848H67.3192V307.056H68.6872V307.932H67.3192V312H66.2032V307.932H65.2912V307.056H66.2032V304.848Z" fill="white"/>
<circle cx="26" cy="306.5" r="9.5" fill="#5500FF"/>
<path d="M24.88 312V308.028H24.028V307.032H24.88V304.932C24.88 304.212 25.04 303.66 25.36 303.276C25.688 302.892 26.168 302.7 26.8 302.7C26.968 302.7 27.152 302.724 27.352 302.772C27.56 302.82 27.74 302.9 27.892 303.012L27.424 303.816C27.352 303.744 27.272 303.696 27.184 303.672C27.096 303.64 27.008 303.624 26.92 303.624C26.624 303.624 26.396 303.724 26.236 303.924C26.076 304.124 25.996 304.464 25.996 304.944V307.032H27.568V308.028H25.996V312H24.88Z" fill="white"/>
<path d="M11.52 85.0879C10.9399 85.0879 10.4185 84.9561 9.95557 84.6924C9.49268 84.4287 9.12646 84.0464 8.85693 83.5454C8.5874 83.0444 8.45264 82.4395 8.45264 81.7305C8.45264 81.0156 8.5874 80.4077 8.85693 79.9067C9.12646 79.4058 9.49268 79.0234 9.95557 78.7598C10.4185 78.4961 10.9399 78.3643 11.52 78.3643C12.1001 78.3643 12.6201 78.4961 13.0801 78.7598C13.543 79.0234 13.9092 79.4058 14.1787 79.9067C14.4482 80.4077 14.583 81.0156 14.583 81.7305C14.583 82.4453 14.4482 83.0532 14.1787 83.5542C13.9092 84.0522 13.543 84.4331 13.0801 84.6968C12.6201 84.9575 12.1001 85.0879 11.52 85.0879ZM9.85449 81.7305C9.85449 82.4219 10.0054 82.9507 10.3071 83.3169C10.6118 83.6831 11.0161 83.8662 11.52 83.8662C12.021 83.8662 12.4224 83.6831 12.7241 83.3169C13.0288 82.9507 13.1812 82.4219 13.1812 81.7305C13.1812 81.0361 13.0288 80.5059 12.7241 80.1396C12.4224 79.7705 12.021 79.5859 11.52 79.5859C11.0161 79.5859 10.6118 79.7705 10.3071 80.1396C10.0054 80.5059 9.85449 81.0361 9.85449 81.7305ZM16.035 86.8369V80.0869H17.3753V80.9175H17.4368C17.4983 80.7827 17.5848 80.6465 17.6961 80.5088C17.8104 80.3711 17.9598 80.2568 18.1443 80.166C18.3318 80.0723 18.5618 80.0254 18.8343 80.0254C19.1946 80.0254 19.5242 80.1191 19.823 80.3066C20.1248 80.4912 20.3665 80.771 20.5481 81.146C20.7298 81.521 20.8206 81.9897 20.8206 82.5522C20.8206 83.0972 20.7327 83.5586 20.5569 83.9365C20.3812 84.3115 20.1424 84.5957 19.8406 84.7891C19.5389 84.9824 19.2005 85.0791 18.8255 85.0791C18.5618 85.0791 18.3377 85.0352 18.1531 84.9473C17.9715 84.8594 17.8221 84.7495 17.7049 84.6177C17.5906 84.4829 17.5013 84.3481 17.4368 84.2134H17.3973V86.8369H16.035ZM17.3665 82.5479C17.3665 82.9814 17.4559 83.3315 17.6346 83.5981C17.8162 83.8647 18.0711 83.998 18.3992 83.998C18.7332 83.998 18.9881 83.8633 19.1639 83.5938C19.3396 83.3213 19.4275 82.9727 19.4275 82.5479C19.4275 82.1201 19.3396 81.7729 19.1639 81.5063C18.991 81.2397 18.7361 81.1064 18.3992 81.1064C18.0711 81.1064 17.8162 81.2368 17.6346 81.4976C17.4559 81.7583 17.3665 82.1084 17.3665 82.5479ZM24.773 80.0869V81.1152H23.8414V83.4883C23.8414 83.8076 23.9967 83.9673 24.3072 83.9673C24.36 83.9673 24.4171 83.9629 24.4786 83.9541C24.5431 83.9453 24.5987 83.9351 24.6456 83.9233L24.8609 84.9429C24.5709 85.0278 24.2896 85.0703 24.0172 85.0703C23.5309 85.0703 23.1529 84.9473 22.8834 84.7012C22.6168 84.4551 22.4835 84.1108 22.4835 83.6685V81.1152H21.8155V80.0869H22.4835V78.918H23.8414V80.0869H24.773ZM26.1107 85V80.0869H27.473V85H26.1107ZM26.7919 79.4585C26.5897 79.4585 26.4154 79.3911 26.2689 79.2563C26.1254 79.1216 26.0536 78.959 26.0536 78.7686C26.0536 78.5781 26.1254 78.417 26.2689 78.2852C26.4154 78.1504 26.5897 78.083 26.7919 78.083C26.994 78.083 27.1669 78.1504 27.3104 78.2852C27.4569 78.417 27.5302 78.5781 27.5302 78.7686C27.5302 78.959 27.4569 79.1216 27.3104 79.2563C27.1669 79.3911 26.994 79.4585 26.7919 79.4585ZM31.2277 85.0967C30.7326 85.0967 30.3034 84.9912 29.9401 84.7803C29.5798 84.5664 29.3015 84.2705 29.1052 83.8926C28.9118 83.5117 28.8151 83.0693 28.8151 82.5654C28.8151 82.0586 28.9118 81.6147 29.1052 81.2339C29.3015 80.853 29.5798 80.5571 29.9401 80.3462C30.3034 80.1323 30.7326 80.0254 31.2277 80.0254C31.7258 80.0254 32.155 80.1323 32.5153 80.3462C32.8786 80.5571 33.1569 80.853 33.3503 81.2339C33.5466 81.6147 33.6447 82.0586 33.6447 82.5654C33.6447 83.0693 33.5466 83.5117 33.3503 83.8926C33.1569 84.2705 32.8786 84.5664 32.5153 84.7803C32.155 84.9912 31.7258 85.0967 31.2277 85.0967ZM30.1994 82.5566C30.1994 82.9844 30.2858 83.3374 30.4587 83.6157C30.6315 83.894 30.8894 84.0332 31.2321 84.0332C31.572 84.0332 31.8283 83.894 32.0012 83.6157C32.174 83.3374 32.2604 82.9844 32.2604 82.5566C32.2604 82.1289 32.174 81.7773 32.0012 81.502C31.8283 81.2266 31.572 81.0889 31.2321 81.0889C30.8894 81.0889 30.6315 81.2266 30.4587 81.502C30.2858 81.7773 30.1994 82.1289 30.1994 82.5566ZM36.3535 82.1611V85H34.9912V80.0869H36.3315V80.9614H36.3799C36.4912 80.6743 36.6685 80.4473 36.9116 80.2803C37.1548 80.1104 37.458 80.0254 37.8213 80.0254C38.334 80.0254 38.7441 80.1909 39.0518 80.522C39.3623 80.8501 39.5176 81.3013 39.5176 81.8755V85H38.1553V82.1172C38.1553 81.8154 38.0776 81.5796 37.9224 81.4097C37.77 81.2397 37.5576 81.1548 37.2852 81.1548C37.0098 81.1548 36.7856 81.2441 36.6128 81.4229C36.4399 81.5986 36.3535 81.8447 36.3535 82.1611ZM45.1355 81.4888L43.8963 81.5635C43.8611 81.4082 43.7732 81.2749 43.6326 81.1636C43.4949 81.0493 43.3074 80.9922 43.0701 80.9922C42.8592 80.9922 42.6819 81.0361 42.5384 81.124C42.3948 81.2119 42.323 81.3291 42.323 81.4756C42.323 81.5928 42.3699 81.6924 42.4637 81.7744C42.5574 81.8564 42.7171 81.9224 42.9427 81.9722L43.8348 82.1479C44.7781 82.3354 45.2498 82.7778 45.2498 83.4751C45.2498 83.8003 45.1561 84.0845 44.9686 84.3276C44.7811 84.5708 44.5232 84.7598 44.1951 84.8945C43.867 85.0293 43.4905 85.0967 43.0657 85.0967C42.4153 85.0967 41.8982 84.9619 41.5145 84.6924C41.1307 84.4199 40.9051 84.0493 40.8377 83.5806L42.1736 83.5103C42.2645 83.9146 42.5633 84.1167 43.0701 84.1167C43.3074 84.1167 43.4993 84.0698 43.6458 83.9761C43.7923 83.8823 43.8655 83.7637 43.8655 83.6201C43.8655 83.377 43.6561 83.2129 43.2371 83.1279L42.389 82.9521C41.4427 82.7617 40.9695 82.2959 40.9695 81.5547C40.9695 81.0801 41.1585 80.7065 41.5364 80.4341C41.9173 80.1616 42.4212 80.0254 43.0481 80.0254C43.6692 80.0254 44.1585 80.1572 44.5159 80.4209C44.8733 80.6816 45.0799 81.0376 45.1355 81.4888Z" fill="white"/>
<path d="M140.501 42C139.987 42 139.572 42.4189 139.572 42.9375V43.5C137.454 43.9336 135.858 45.8262 135.858 48.0938V48.8379C135.858 50.168 135.408 51.46 134.587 52.4971L134.154 53.0449C133.986 53.2559 133.954 53.5459 134.07 53.7891C134.186 54.0322 134.43 54.1875 134.697 54.1875H146.305C146.572 54.1875 146.816 54.0322 146.932 53.7891C147.048 53.5459 147.016 53.2559 146.848 53.0449L146.415 52.5C145.594 51.46 145.144 50.168 145.144 48.8379V48.0938C145.144 45.8262 143.548 43.9336 141.43 43.5V42.9375C141.43 42.4189 141.015 42 140.501 42ZM140.501 44.8125C142.297 44.8125 143.751 46.2803 143.751 48.0938V48.8379C143.751 50.2412 144.155 51.6094 144.903 52.7812H136.098C136.847 51.6094 137.251 50.2412 137.251 48.8379V48.0938C137.251 46.2803 138.705 44.8125 140.501 44.8125ZM142.358 55.125H140.501H138.644C138.644 55.623 138.838 56.1006 139.186 56.4521C139.535 56.8037 140.008 57 140.501 57C140.994 57 141.467 56.8037 141.816 56.4521C142.164 56.1006 142.358 55.623 142.358 55.125Z" fill="#E0DEDD"/>
<path d="M110 42.5C106.142 42.5 103 45.6423 103 49.5C103 53.3577 106.142 56.5 110 56.5C113.858 56.5 117 53.3577 117 49.5C117 45.6423 113.858 42.5 110 42.5ZM110 43.9C113.101 43.9 115.6 46.3989 115.6 49.5C115.6 52.6011 113.101 55.1 110 55.1C106.899 55.1 104.4 52.6011 104.4 49.5C104.4 46.3989 106.899 43.9 110 43.9ZM110 46C109.814 46 109.636 46.0738 109.505 46.205C109.374 46.3363 109.3 46.5143 109.3 46.7C109.3 46.8857 109.374 47.0637 109.505 47.195C109.636 47.3263 109.814 47.4 110 47.4C110.186 47.4 110.364 47.3263 110.495 47.195C110.626 47.0637 110.7 46.8857 110.7 46.7C110.7 46.5143 110.626 46.3363 110.495 46.205C110.364 46.0738 110.186 46 110 46ZM109.989 48.7904C109.804 48.7933 109.627 48.8697 109.498 49.0027C109.369 49.1357 109.297 49.3146 109.3 49.5V53C109.299 53.0928 109.316 53.1849 109.35 53.2709C109.385 53.357 109.436 53.4354 109.501 53.5014C109.567 53.5675 109.644 53.6199 109.73 53.6557C109.815 53.6915 109.907 53.71 110 53.71C110.093 53.71 110.185 53.6915 110.27 53.6557C110.356 53.6199 110.433 53.5675 110.499 53.5014C110.564 53.4354 110.615 53.357 110.65 53.2709C110.684 53.1849 110.701 53.0928 110.7 53V49.5C110.701 49.4063 110.684 49.3134 110.648 49.2266C110.613 49.1399 110.561 49.0611 110.495 48.9949C110.428 48.9287 110.349 48.8766 110.263 48.8414C110.176 48.8063 110.083 48.789 109.989 48.7904Z" fill="#E0DEDD"/>
<path d="M14 43.0833C14 42.4841 14.4788 42 15.0714 42H27.9286C28.5212 42 29 42.4841 29 43.0833C29 43.6826 28.5212 44.1667 27.9286 44.1667H15.0714C14.4788 44.1667 14 43.6826 14 43.0833ZM14 48.5C14 47.9008 14.4788 47.4167 15.0714 47.4167H27.9286C28.5212 47.4167 29 47.9008 29 48.5C29 49.0992 28.5212 49.5833 27.9286 49.5833H15.0714C14.4788 49.5833 14 49.0992 14 48.5ZM29 53.9167C29 54.5159 28.5212 55 27.9286 55H15.0714C14.4788 55 14 54.5159 14 53.9167C14 53.3174 14.4788 52.8333 15.0714 52.8333H27.9286C28.5212 52.8333 29 53.3174 29 53.9167Z" fill="#E0DEDD"/>
<path d="M13.4966 16.1077C12.5703 16.1077 11.8303 15.8958 11.2766 15.4719C10.7263 15.0481 10.4392 14.4243 10.4153 13.6006H11.979C12.0063 13.9834 12.1567 14.2722 12.4302 14.467C12.707 14.6584 13.0557 14.7542 13.4761 14.7542C13.8862 14.7542 14.2144 14.667 14.4604 14.4927C14.71 14.3184 14.8347 14.0911 14.8347 13.8108C14.8347 13.5544 14.7219 13.3579 14.4963 13.2212C14.2708 13.0811 13.9495 12.9614 13.5325 12.8623L12.6968 12.6572C12.0542 12.5034 11.5466 12.259 11.1741 11.9241C10.8049 11.5857 10.6204 11.1345 10.6204 10.5706C10.6204 10.1091 10.7451 9.70581 10.9946 9.3606C11.2441 9.01196 11.5859 8.74194 12.02 8.55054C12.4575 8.35571 12.9548 8.2583 13.512 8.2583C14.0793 8.2583 14.575 8.35571 14.9988 8.55054C15.4226 8.74536 15.7524 9.01538 15.9883 9.3606C16.2275 9.70581 16.3506 10.104 16.3574 10.5552H14.7988C14.7715 10.2578 14.645 10.0254 14.4194 9.85791C14.1938 9.69043 13.8879 9.60669 13.5017 9.60669C13.1086 9.60669 12.8062 9.68872 12.5942 9.85278C12.3823 10.0134 12.2764 10.2185 12.2764 10.468C12.2764 10.738 12.3943 10.9431 12.6301 11.0833C12.866 11.22 13.1497 11.3276 13.4812 11.4062L14.1631 11.5754C14.6074 11.6746 15.0022 11.8198 15.3474 12.0112C15.6926 12.1992 15.9644 12.4419 16.1626 12.7393C16.3608 13.0332 16.46 13.3921 16.46 13.8159C16.46 14.5166 16.1985 15.0737 15.6755 15.4873C15.1526 15.9009 14.4263 16.1077 13.4966 16.1077ZM19.0101 18.1841C18.8084 18.1841 18.6188 18.1687 18.441 18.1379C18.2667 18.1072 18.1214 18.0696 18.0052 18.0251L18.3692 16.8408L18.4205 16.8511C18.6871 16.9263 18.9161 16.9434 19.1075 16.9023C19.3023 16.8613 19.4459 16.7109 19.5382 16.4512L19.6356 16.1641L17.5848 10.2681H19.2511L20.4405 14.4773H20.5021L21.6966 10.2681H23.3783L21.1378 16.6614C20.9771 17.1262 20.7293 17.4954 20.3944 17.7688C20.0628 18.0457 19.6014 18.1841 19.0101 18.1841ZM26.3078 12.688V16H24.7185V10.2681H26.2822V11.2883H26.3386C26.4685 10.9534 26.6752 10.6885 26.9589 10.4937C27.2426 10.2954 27.5964 10.1963 28.0202 10.1963C28.6184 10.1963 29.0969 10.3894 29.4558 10.7756C29.8181 11.1584 29.9992 11.6848 29.9992 12.3547V16H28.4099V12.6367C28.4099 12.2847 28.3193 12.0095 28.1381 11.8113C27.9604 11.613 27.7126 11.5139 27.3947 11.5139C27.0734 11.5139 26.812 11.6182 26.6103 11.8267C26.4086 12.0317 26.3078 12.3188 26.3078 12.688ZM34.8411 10.2681V11.4678H33.7542V14.2363C33.7542 14.6089 33.9354 14.7952 34.2977 14.7952C34.3592 14.7952 34.4258 14.79 34.4976 14.7798C34.5728 14.7695 34.6377 14.7576 34.6924 14.7439L34.9437 15.9333C34.6053 16.0325 34.2771 16.082 33.9593 16.082C33.3919 16.082 32.951 15.9385 32.6365 15.6514C32.3255 15.3643 32.17 14.9626 32.17 14.4465V11.4678H31.3907V10.2681H32.17V8.9043H33.7542V10.2681H34.8411ZM36.4018 16V10.2681H37.9398V11.2729H38.0014C38.1039 10.9175 38.2782 10.6492 38.5243 10.468C38.7704 10.2834 39.0541 10.1912 39.3754 10.1912C39.454 10.1912 39.5395 10.1963 39.6317 10.2065C39.724 10.2168 39.8043 10.2305 39.8727 10.2476V11.6523C39.7975 11.6284 39.6933 11.6096 39.56 11.5959C39.4301 11.5789 39.3104 11.5703 39.2011 11.5703C38.8524 11.5703 38.5636 11.6814 38.3346 11.9036C38.1056 12.1223 37.9911 12.4077 37.9911 12.7598V16H36.4018ZM41.2231 16V10.2681H42.8125V16H41.2231ZM42.0178 9.53491C41.782 9.53491 41.5786 9.4563 41.4077 9.29907C41.2402 9.14185 41.1565 8.95215 41.1565 8.72998C41.1565 8.50781 41.2402 8.31982 41.4077 8.16602C41.5786 8.00879 41.782 7.93018 42.0178 7.93018C42.2537 7.93018 42.4553 8.00879 42.6228 8.16602C42.7937 8.31982 42.8792 8.50781 42.8792 8.72998C42.8792 8.95215 42.7937 9.14185 42.6228 9.29907C42.4553 9.4563 42.2537 9.53491 42.0178 9.53491ZM45.9369 10.2681L46.9828 12.2778L48.0594 10.2681H49.6949L48.0338 13.1392L49.7411 16H48.1158L46.9828 14.021L45.8753 16H44.2347L45.9369 13.1392L44.2962 10.2681H45.9369ZM52.3015 16.0974C52.0485 16.0974 51.8349 16.012 51.6606 15.8411C51.4863 15.6667 51.3991 15.4548 51.3991 15.2053C51.3991 14.9524 51.4863 14.7405 51.6606 14.5696C51.8349 14.3987 52.0485 14.3132 52.3015 14.3132C52.5544 14.3132 52.768 14.3987 52.9423 14.5696C53.1166 14.7405 53.2038 14.9524 53.2038 15.2053C53.2038 15.4548 53.1166 15.6667 52.9423 15.8411C52.768 16.012 52.5544 16.0974 52.3015 16.0974ZM56.564 10.2681L57.6099 12.2778L58.6866 10.2681H60.3221L58.6609 13.1392L60.3682 16H58.743L57.6099 14.021L56.5025 16H54.8619L56.564 13.1392L54.9234 10.2681H56.564ZM62.7594 18.1841C62.5578 18.1841 62.3681 18.1687 62.1903 18.1379C62.016 18.1072 61.8708 18.0696 61.7545 18.0251L62.1186 16.8408L62.1698 16.8511C62.4364 16.9263 62.6654 16.9434 62.8568 16.9023C63.0517 16.8613 63.1952 16.7109 63.2875 16.4512L63.3849 16.1641L61.3341 10.2681H63.0004L64.1898 14.4773H64.2514L65.4459 10.2681H67.1276L64.8871 16.6614C64.7265 17.1262 64.4787 17.4954 64.1437 17.7688C63.8122 18.0457 63.3507 18.1841 62.7594 18.1841ZM68.4421 16V15.0515L71.2415 11.5806V11.5396H68.5293V10.2681H73.1538V11.3088L70.5237 14.6875V14.7285H73.2461V16H68.4421Z" fill="white"/>
<line x1="164.5" y1="25" x2="164.5" y2="333" stroke="#171615"/>
</svg>
