<svg width="710" height="439" viewBox="0 0 710 439" fill="none" xmlns="http://www.w3.org/2000/svg">
<rect width="710" height="439" rx="7" fill="#121212"/>
<path d="M214 0H703C706.866 0 710 3.13401 710 7V432C710 435.866 706.866 439 703 439H214V0Z" fill="#0E0E0E"/>
<path d="M0 7C0 3.13401 3.13401 0 7 0H703C706.866 0 710 3.13401 710 7V31H0V7Z" fill="#0C0C0C"/>
<path d="M687.611 10C687.455 10 687.298 10.0596 687.179 10.179C686.94 10.4177 686.94 10.8045 687.179 11.0432L691.636 15.5L687.179 19.9568C686.94 20.1955 686.94 20.5823 687.179 20.821C687.298 20.9404 687.455 21 687.611 21C687.768 21 687.924 20.9404 688.043 20.821L692.5 16.3641L696.957 20.821C697.196 21.0596 697.582 21.0596 697.821 20.821C698.06 20.5823 698.06 20.1955 697.821 19.9568L693.364 15.5L697.821 11.0432C698.06 10.8045 698.06 10.4177 697.821 10.179C697.582 9.9404 697.196 9.9404 696.957 10.179L692.5 14.6359L688.043 10.179C687.924 10.0596 687.768 10 687.611 10Z" fill="#E0DEDD"/>
<path d="M11 392C11 389.239 13.2386 387 16 387H200C202.761 387 205 389.239 205 392V420C205 422.761 202.761 425 200 425H16C13.2386 425 11 422.761 11 420V392Z" fill="#0E0E0E"/>
<circle cx="35" cy="405" r="12" fill="#5500FF"/>
<path d="M14.6934 108.117C13.9199 108.117 13.2246 107.941 12.6074 107.59C11.9902 107.238 11.502 106.729 11.1426 106.061C10.7832 105.393 10.6035 104.586 10.6035 103.641C10.6035 102.688 10.7832 101.877 11.1426 101.209C11.502 100.541 11.9902 100.031 12.6074 99.6797C13.2246 99.3281 13.9199 99.1523 14.6934 99.1523C15.4668 99.1523 16.1602 99.3281 16.7734 99.6797C17.3906 100.031 17.8789 100.541 18.2383 101.209C18.5977 101.877 18.7773 102.688 18.7773 103.641C18.7773 104.594 18.5977 105.404 18.2383 106.072C17.8789 106.736 17.3906 107.244 16.7734 107.596C16.1602 107.943 15.4668 108.117 14.6934 108.117ZM12.4727 103.641C12.4727 104.562 12.6738 105.268 13.0762 105.756C13.4824 106.244 14.0215 106.488 14.6934 106.488C15.3613 106.488 15.8965 106.244 16.2988 105.756C16.7051 105.268 16.9082 104.562 16.9082 103.641C16.9082 102.715 16.7051 102.008 16.2988 101.52C15.8965 101.027 15.3613 100.781 14.6934 100.781C14.0215 100.781 13.4824 101.027 13.0762 101.52C12.6738 102.008 12.4727 102.715 12.4727 103.641ZM20.7133 110.449V101.449H22.5004V102.557H22.5824C22.6645 102.377 22.7797 102.195 22.9281 102.012C23.0805 101.828 23.2797 101.676 23.5258 101.555C23.7758 101.43 24.0824 101.367 24.4457 101.367C24.9262 101.367 25.3656 101.492 25.7641 101.742C26.1664 101.988 26.4887 102.361 26.7309 102.861C26.973 103.361 27.0941 103.986 27.0941 104.736C27.0941 105.463 26.977 106.078 26.7426 106.582C26.5082 107.082 26.1898 107.461 25.7875 107.719C25.3852 107.977 24.934 108.105 24.434 108.105C24.0824 108.105 23.7836 108.047 23.5375 107.93C23.2953 107.812 23.0961 107.666 22.9398 107.49C22.7875 107.311 22.6684 107.131 22.5824 106.951H22.5297V110.449H20.7133ZM22.4887 104.73C22.4887 105.309 22.6078 105.775 22.8461 106.131C23.0883 106.486 23.4281 106.664 23.8656 106.664C24.3109 106.664 24.6508 106.484 24.8852 106.125C25.1195 105.762 25.2367 105.297 25.2367 104.73C25.2367 104.16 25.1195 103.697 24.8852 103.342C24.6547 102.986 24.3148 102.809 23.8656 102.809C23.4281 102.809 23.0883 102.982 22.8461 103.33C22.6078 103.678 22.4887 104.145 22.4887 104.73ZM32.3641 101.449V102.82H31.1219V105.984C31.1219 106.41 31.3289 106.623 31.743 106.623C31.8133 106.623 31.8895 106.617 31.9715 106.605C32.0574 106.594 32.1316 106.58 32.1941 106.564L32.4813 107.924C32.0945 108.037 31.7195 108.094 31.3563 108.094C30.7078 108.094 30.2039 107.93 29.8445 107.602C29.4891 107.273 29.3113 106.814 29.3113 106.225V102.82H28.4207V101.449H29.3113V99.8906H31.1219V101.449H32.3641ZM34.1477 108V101.449H35.9641V108H34.1477ZM35.0559 100.611C34.7863 100.611 34.5539 100.521 34.3586 100.342C34.1672 100.162 34.0715 99.9453 34.0715 99.6914C34.0715 99.4375 34.1672 99.2227 34.3586 99.0469C34.5539 98.8672 34.7863 98.7773 35.0559 98.7773C35.3254 98.7773 35.5559 98.8672 35.7473 99.0469C35.9426 99.2227 36.0402 99.4375 36.0402 99.6914C36.0402 99.9453 35.9426 100.162 35.7473 100.342C35.5559 100.521 35.3254 100.611 35.0559 100.611ZM40.9703 108.129C40.3102 108.129 39.7379 107.988 39.2535 107.707C38.773 107.422 38.402 107.027 38.1402 106.523C37.8824 106.016 37.7535 105.426 37.7535 104.754C37.7535 104.078 37.8824 103.486 38.1402 102.979C38.402 102.471 38.773 102.076 39.2535 101.795C39.7379 101.51 40.3102 101.367 40.9703 101.367C41.6344 101.367 42.2066 101.51 42.6871 101.795C43.1715 102.076 43.5426 102.471 43.8004 102.979C44.0621 103.486 44.193 104.078 44.193 104.754C44.193 105.426 44.0621 106.016 43.8004 106.523C43.5426 107.027 43.1715 107.422 42.6871 107.707C42.2066 107.988 41.6344 108.129 40.9703 108.129ZM39.5992 104.742C39.5992 105.312 39.7145 105.783 39.9449 106.154C40.1754 106.525 40.5191 106.711 40.9762 106.711C41.4293 106.711 41.7711 106.525 42.0016 106.154C42.232 105.783 42.3473 105.312 42.3473 104.742C42.3473 104.172 42.232 103.703 42.0016 103.336C41.7711 102.969 41.4293 102.785 40.9762 102.785C40.5191 102.785 40.1754 102.969 39.9449 103.336C39.7145 103.703 39.5992 104.172 39.5992 104.742ZM47.8047 104.215V108H45.9883V101.449H47.7754V102.615H47.8398C47.9883 102.232 48.2246 101.93 48.5488 101.707C48.873 101.48 49.2773 101.367 49.7617 101.367C50.4453 101.367 50.9922 101.588 51.4023 102.029C51.8164 102.467 52.0234 103.068 52.0234 103.834V108H50.207V104.156C50.207 103.754 50.1035 103.439 49.8965 103.213C49.6934 102.986 49.4102 102.873 49.0469 102.873C48.6797 102.873 48.3809 102.992 48.1504 103.23C47.9199 103.465 47.8047 103.793 47.8047 104.215ZM59.5141 103.318L57.8617 103.418C57.8148 103.211 57.6977 103.033 57.5102 102.885C57.3266 102.732 57.0766 102.656 56.7602 102.656C56.4789 102.656 56.2426 102.715 56.0512 102.832C55.8598 102.949 55.7641 103.105 55.7641 103.301C55.7641 103.457 55.8266 103.59 55.9516 103.699C56.0766 103.809 56.2895 103.896 56.5902 103.963L57.7797 104.197C59.0375 104.447 59.6664 105.037 59.6664 105.967C59.6664 106.4 59.5414 106.779 59.2914 107.104C59.0414 107.428 58.6977 107.68 58.2602 107.859C57.8227 108.039 57.3207 108.129 56.7543 108.129C55.8871 108.129 55.1977 107.949 54.6859 107.59C54.1742 107.227 53.8734 106.732 53.7836 106.107L55.5648 106.014C55.6859 106.553 56.0844 106.822 56.7602 106.822C57.0766 106.822 57.3324 106.76 57.5277 106.635C57.723 106.51 57.8207 106.352 57.8207 106.16C57.8207 105.836 57.5414 105.617 56.9828 105.504L55.852 105.27C54.5902 105.016 53.9594 104.395 53.9594 103.406C53.9594 102.773 54.2113 102.275 54.7152 101.912C55.223 101.549 55.8949 101.367 56.7309 101.367C57.559 101.367 58.2113 101.543 58.6879 101.895C59.1645 102.242 59.4398 102.717 59.5141 103.318Z" fill="white"/>
<path d="M184 54C183.368 54 182.857 54.5307 182.857 55.1875V55.9C180.25 56.4492 178.285 58.8465 178.285 61.7188V62.6613C178.285 64.3461 177.732 65.9826 176.721 67.2963L176.189 67.9902C175.981 68.2574 175.942 68.6248 176.085 68.9328C176.228 69.2408 176.528 69.4375 176.856 69.4375H191.144C191.472 69.4375 191.772 69.2408 191.915 68.9328C192.058 68.6248 192.019 68.2574 191.811 67.9902L191.279 67.3C190.268 65.9826 189.715 64.3461 189.715 62.6613V61.7188C189.715 58.8465 187.75 56.4492 185.143 55.9V55.1875C185.143 54.5307 184.632 54 184 54ZM184 57.5625C186.211 57.5625 188 59.4217 188 61.7188V62.6613C188 64.4389 188.497 66.1719 189.418 67.6562H178.582C179.503 66.1719 180 64.4389 180 62.6613V61.7188C180 59.4217 181.789 57.5625 184 57.5625ZM186.286 70.625H184H181.714C181.714 71.2559 181.953 71.8607 182.382 72.3061C182.811 72.7514 183.393 73 184 73C184.607 73 185.189 72.7514 185.618 72.3061C186.047 71.8607 186.286 71.2559 186.286 70.625Z" fill="#E0DEDD"/>
<path d="M143.5 53C138.265 53 134 57.2645 134 62.5C134 67.7355 138.265 72 143.5 72C148.735 72 153 67.7355 153 62.5C153 57.2645 148.735 53 143.5 53ZM143.5 54.9C147.709 54.9 151.1 58.2914 151.1 62.5C151.1 66.7086 147.709 70.1 143.5 70.1C139.291 70.1 135.9 66.7086 135.9 62.5C135.9 58.2914 139.291 54.9 143.5 54.9ZM143.5 57.75C143.248 57.75 143.006 57.8501 142.828 58.0282C142.65 58.2064 142.55 58.448 142.55 58.7C142.55 58.952 142.65 59.1936 142.828 59.3718C143.006 59.5499 143.248 59.65 143.5 59.65C143.752 59.65 143.994 59.5499 144.172 59.3718C144.35 59.1936 144.45 58.952 144.45 58.7C144.45 58.448 144.35 58.2064 144.172 58.0282C143.994 57.8501 143.752 57.75 143.5 57.75ZM143.485 61.537C143.234 61.5409 142.994 61.6446 142.818 61.8251C142.643 62.0056 142.547 62.2484 142.55 62.5V67.25C142.548 67.3759 142.571 67.5009 142.618 67.6177C142.665 67.7345 142.735 67.8408 142.823 67.9305C142.912 68.0201 143.017 68.0913 143.133 68.1399C143.249 68.1885 143.374 68.2135 143.5 68.2135C143.626 68.2135 143.751 68.1885 143.867 68.1399C143.983 68.0913 144.088 68.0201 144.177 67.9305C144.265 67.8408 144.335 67.7345 144.382 67.6177C144.429 67.5009 144.452 67.3759 144.45 67.25V62.5C144.452 62.3729 144.428 62.2467 144.38 62.129C144.332 62.0113 144.261 61.9043 144.171 61.8145C144.081 61.7247 143.974 61.6539 143.856 61.6062C143.738 61.5586 143.612 61.535 143.485 61.537Z" fill="#E0DEDD"/>
<path d="M18 55.4167C18 54.6331 18.5746 54 19.2857 54H34.7143C35.4254 54 36 54.6331 36 55.4167C36 56.2003 35.4254 56.8333 34.7143 56.8333H19.2857C18.5746 56.8333 18 56.2003 18 55.4167ZM18 62.5C18 61.7164 18.5746 61.0833 19.2857 61.0833H34.7143C35.4254 61.0833 36 61.7164 36 62.5C36 63.2836 35.4254 63.9167 34.7143 63.9167H19.2857C18.5746 63.9167 18 63.2836 18 62.5ZM36 69.5833C36 70.3669 35.4254 71 34.7143 71H19.2857C18.5746 71 18 70.3669 18 69.5833C18 68.7997 18.5746 68.1667 19.2857 68.1667H34.7143C35.4254 68.1667 36 68.7997 36 69.5833Z" fill="#E0DEDD"/>
<path d="M15.1626 20.1282C14.0599 20.1282 13.179 19.8759 12.5198 19.3713C11.8647 18.8668 11.5229 18.1242 11.4944 17.1436H13.356C13.3885 17.5993 13.5675 17.9431 13.8931 18.175C14.2227 18.4029 14.6377 18.5168 15.1382 18.5168C15.6265 18.5168 16.0171 18.4131 16.3101 18.2056C16.6071 17.998 16.7556 17.7275 16.7556 17.3938C16.7556 17.0886 16.6213 16.8547 16.3528 16.6919C16.0842 16.5251 15.7017 16.3826 15.2053 16.2646L14.2104 16.0205C13.4455 15.8374 12.8412 15.5465 12.3977 15.1477C11.9583 14.7449 11.7385 14.2078 11.7385 13.5364C11.7385 12.9871 11.887 12.5069 12.1841 12.0959C12.4811 11.6809 12.888 11.3595 13.4048 11.1316C13.9256 10.8997 14.5177 10.7837 15.1809 10.7837C15.8564 10.7837 16.4464 10.8997 16.9509 11.1316C17.4555 11.3635 17.8481 11.685 18.1289 12.0959C18.4137 12.5069 18.5602 12.981 18.5684 13.5181H16.7129C16.6803 13.1641 16.5298 12.8874 16.2612 12.688C15.9927 12.4886 15.6285 12.3889 15.1687 12.3889C14.7008 12.3889 14.3407 12.4866 14.0884 12.6819C13.8361 12.8731 13.71 13.1173 13.71 13.4143C13.71 13.7358 13.8503 13.9799 14.1311 14.1467C14.4119 14.3095 14.7496 14.4377 15.1443 14.5312L15.9561 14.7327C16.485 14.8507 16.955 15.0236 17.366 15.2515C17.7769 15.4753 18.1004 15.7642 18.3364 16.1182C18.5724 16.4681 18.6904 16.8953 18.6904 17.3999C18.6904 18.234 18.3792 18.8973 17.7566 19.3896C17.134 19.882 16.2694 20.1282 15.1626 20.1282ZM21.7263 22.6001C21.4862 22.6001 21.2604 22.5818 21.0488 22.5452C20.8413 22.5085 20.6684 22.4638 20.53 22.4109L20.9634 21.001L21.0244 21.0132C21.3418 21.1027 21.6144 21.123 21.8423 21.0742C22.0742 21.0254 22.2451 20.8464 22.355 20.5371L22.4709 20.1953L20.0295 13.1763H22.0132L23.4292 18.1873H23.5024L24.9246 13.1763H26.9265L24.2593 20.7874C24.068 21.3407 23.773 21.7802 23.3743 22.1057C22.9796 22.4353 22.4303 22.6001 21.7263 22.6001ZM30.4141 16.0571V20H28.522V13.1763H30.3835V14.3909H30.4507C30.6053 13.9921 30.8515 13.6768 31.1892 13.4448C31.5269 13.2088 31.9481 13.0908 32.4526 13.0908C33.1647 13.0908 33.7344 13.3207 34.1616 13.7805C34.5929 14.2362 34.8086 14.8629 34.8086 15.6604V20H32.9165V15.9961C32.9165 15.577 32.8087 15.2494 32.593 15.0134C32.3814 14.7774 32.0864 14.6594 31.708 14.6594C31.3255 14.6594 31.0142 14.7835 30.7742 15.0317C30.5341 15.2759 30.4141 15.6177 30.4141 16.0571ZM40.5728 13.1763V14.6045H39.2788V17.9004C39.2788 18.3439 39.4945 18.5657 39.9258 18.5657C39.999 18.5657 40.0784 18.5596 40.1638 18.5474C40.2533 18.5352 40.3306 18.5209 40.3958 18.5046L40.6948 19.9207C40.292 20.0387 39.9014 20.0977 39.5229 20.0977C38.8475 20.0977 38.3226 19.9268 37.9482 19.585C37.578 19.2432 37.3928 18.7651 37.3928 18.1506V14.6045H36.4651V13.1763H37.3928V11.5527H39.2788V13.1763H40.5728ZM42.4307 20V13.1763H44.2617V14.3726H44.335C44.457 13.9494 44.6646 13.63 44.9575 13.4143C45.2505 13.1946 45.5882 13.0847 45.9707 13.0847C46.0643 13.0847 46.166 13.0908 46.2759 13.103C46.3857 13.1152 46.4814 13.1315 46.5627 13.1519V14.8242C46.4732 14.7957 46.3491 14.7734 46.1904 14.7571C46.0358 14.7367 45.8934 14.7266 45.7632 14.7266C45.3481 14.7266 45.0043 14.8588 44.7317 15.1233C44.4591 15.3837 44.3228 15.7235 44.3228 16.1426V20H42.4307ZM48.1704 20V13.1763H50.0625V20H48.1704ZM49.1165 12.3035C48.8357 12.3035 48.5936 12.2099 48.3901 12.0227C48.1908 11.8355 48.0911 11.6097 48.0911 11.3452C48.0911 11.0807 48.1908 10.8569 48.3901 10.6738C48.5936 10.4867 48.8357 10.3931 49.1165 10.3931C49.3972 10.3931 49.6373 10.4867 49.8367 10.6738C50.0401 10.8569 50.1418 11.0807 50.1418 11.3452C50.1418 11.6097 50.0401 11.8355 49.8367 12.0227C49.6373 12.2099 49.3972 12.3035 49.1165 12.3035ZM53.782 13.1763L55.0271 15.5688L56.3088 13.1763H58.2559L56.2783 16.5942L58.3108 20H56.376L55.0271 17.644L53.7087 20H51.7556L53.782 16.5942L51.8289 13.1763H53.782ZM61.3589 20.116C61.0578 20.116 60.8035 20.0142 60.5959 19.8108C60.3884 19.6033 60.2847 19.351 60.2847 19.054C60.2847 18.7528 60.3884 18.5006 60.5959 18.2971C60.8035 18.0937 61.0578 17.9919 61.3589 17.9919C61.66 17.9919 61.9143 18.0937 62.1218 18.2971C62.3293 18.5006 62.4331 18.7528 62.4331 19.054C62.4331 19.351 62.3293 19.6033 62.1218 19.8108C61.9143 20.0142 61.66 20.116 61.3589 20.116ZM66.4333 13.1763L67.6785 15.5688L68.9602 13.1763H70.9072L68.9297 16.5942L70.9622 20H69.0273L67.6785 17.644L66.3601 20H64.407L66.4333 16.5942L64.4802 13.1763H66.4333ZM73.8088 22.6001C73.5688 22.6001 73.3429 22.5818 73.1313 22.5452C72.9238 22.5085 72.7509 22.4638 72.6125 22.4109L73.0459 21.001L73.1069 21.0132C73.4243 21.1027 73.6969 21.123 73.9248 21.0742C74.1567 21.0254 74.3276 20.8464 74.4375 20.5371L74.5535 20.1953L72.1121 13.1763H74.0957L75.5117 18.1873H75.585L77.0071 13.1763H79.009L76.3418 20.7874C76.1506 21.3407 75.8556 21.7802 75.4568 22.1057C75.0621 22.4353 74.5128 22.6001 73.8088 22.6001ZM80.574 20V18.8708L83.9065 14.7388V14.6899H80.6777V13.1763H86.1831V14.4153L83.052 18.4375V18.4863H86.293V20H80.574Z" fill="white"/>
<line x1="214.5" y1="31" x2="214.5" y2="439" stroke="#171615"/>
</svg>
