<svg width="8" height="10" viewBox="0 0 8 10" fill="none" xmlns="http://www.w3.org/2000/svg">
<path opacity="0.6" d="M4 9.11719C2.88672 9.11719 2.01953 8.72461 1.39844 7.93945C0.78125 7.1543 0.472656 6.05469 0.472656 4.64062C0.472656 3.22656 0.783203 2.125 1.4043 1.33594C2.02539 0.546875 2.89062 0.152344 4 0.152344C5.10938 0.152344 5.97461 0.546875 6.5957 1.33594C7.2168 2.125 7.52734 3.22656 7.52734 4.64062C7.52734 6.05469 7.2168 7.1543 6.5957 7.93945C5.97852 8.72461 5.11328 9.11719 4 9.11719ZM2.35352 4.64062C2.35352 5.58594 2.49414 6.31445 2.77539 6.82617C3.06055 7.33789 3.46875 7.59375 4 7.59375C4.53125 7.59375 4.9375 7.33789 5.21875 6.82617C5.50391 6.31445 5.64648 5.58594 5.64648 4.64062C5.64648 3.69141 5.50391 2.95898 5.21875 2.44336C4.9375 1.92773 4.53125 1.66992 4 1.66992C3.47266 1.66992 3.06641 1.92969 2.78125 2.44922C2.49609 2.96484 2.35352 3.69531 2.35352 4.64062Z" fill="white"/>
</svg>
