<svg width="8" height="9" viewBox="0 0 8 9" fill="none" xmlns="http://www.w3.org/2000/svg">
<path d="M0.923828 9V7.67578L4.03516 4.79297C4.42969 4.41016 4.73047 4.07812 4.9375 3.79688C5.14453 3.51562 5.24805 3.20312 5.24805 2.85938C5.24805 2.47656 5.12109 2.17383 4.86719 1.95117C4.61719 1.72852 4.30078 1.61719 3.91797 1.61719C3.51562 1.61719 3.19336 1.73828 2.95117 1.98047C2.71289 2.21875 2.59375 2.54688 2.59375 2.96484H0.841797C0.841797 2.39062 0.972656 1.89453 1.23438 1.47656C1.49609 1.05469 1.85742 0.728516 2.31836 0.498047C2.7832 0.267578 3.32031 0.152344 3.92969 0.152344C4.55469 0.152344 5.09961 0.263672 5.56445 0.486328C6.0293 0.705078 6.39062 1.00977 6.64844 1.40039C6.90625 1.78711 7.03516 2.23438 7.03516 2.74219C7.03516 3.07031 6.96875 3.39453 6.83594 3.71484C6.70703 4.03125 6.47852 4.38477 6.15039 4.77539C5.82227 5.16602 5.35742 5.63477 4.75586 6.18164L3.48438 7.42969V7.49414H7.15234V9H0.923828Z" fill="white"/>
</svg>
