<svg width="8" height="10" viewBox="0 0 8 10" fill="none" xmlns="http://www.w3.org/2000/svg">
<path d="M3.9707 9.11719C3.33398 9.11719 2.76758 9.00781 2.27148 8.78906C1.77539 8.57031 1.38477 8.26758 1.09961 7.88086C0.814453 7.49023 0.667969 7.04102 0.660156 6.5332H2.51758C2.5293 6.85352 2.67383 7.11133 2.95117 7.30664C3.22852 7.49805 3.57031 7.59375 3.97656 7.59375C4.39844 7.59375 4.74219 7.48633 5.00781 7.27148C5.27734 7.05273 5.41211 6.77148 5.41211 6.42773C5.41211 6.07617 5.26953 5.78906 4.98438 5.56641C4.69922 5.34375 4.30859 5.23242 3.8125 5.23242H2.99805V3.87305H3.8125C4.23047 3.87305 4.57031 3.76758 4.83203 3.55664C5.09766 3.3457 5.23047 3.06836 5.23047 2.72461C5.23047 2.39648 5.11523 2.13086 4.88477 1.92773C4.6582 1.7207 4.35938 1.61719 3.98828 1.61719C3.60938 1.61719 3.28516 1.7168 3.01562 1.91602C2.75 2.11133 2.61328 2.375 2.60547 2.70703H0.835938C0.84375 2.20312 0.986328 1.75977 1.26367 1.37695C1.54102 0.994141 1.91602 0.695312 2.38867 0.480469C2.86523 0.261719 3.40234 0.152344 4 0.152344C4.60156 0.152344 5.12695 0.261719 5.57617 0.480469C6.0293 0.699219 6.38086 0.994141 6.63086 1.36523C6.88477 1.73633 7.01172 2.15234 7.01172 2.61328C7.01172 3.10156 6.85938 3.50977 6.55469 3.83789C6.25 4.16211 5.85352 4.36914 5.36523 4.45898V4.52344C6.00586 4.60547 6.49219 4.82812 6.82422 5.19141C7.16016 5.55469 7.32812 6.00781 7.32812 6.55078C7.32812 7.04688 7.18359 7.48828 6.89453 7.875C6.60938 8.26172 6.21289 8.56641 5.70508 8.78906C5.20117 9.00781 4.62305 9.11719 3.9707 9.11719Z" fill="white"/>
</svg>
