<svg width="8" height="10" viewBox="0 0 8 10" fill="none" xmlns="http://www.w3.org/2000/svg">
<path d="M4.02344 9.11719C3.42188 9.11719 2.88281 9.00781 2.40625 8.78906C1.93359 8.56641 1.56055 8.25977 1.28711 7.86914C1.01367 7.47852 0.871094 7.0332 0.859375 6.5332H2.65234C2.66797 6.86914 2.80859 7.14258 3.07422 7.35352C3.33984 7.56055 3.65625 7.66406 4.02344 7.66406C4.45312 7.66406 4.80469 7.52344 5.07812 7.24219C5.35547 6.95703 5.49414 6.58789 5.49414 6.13477C5.49414 5.67773 5.35352 5.30469 5.07227 5.01562C4.79492 4.72656 4.43555 4.58203 3.99414 4.58203C3.73242 4.58203 3.48242 4.63477 3.24414 4.74023C3.00977 4.8457 2.82617 4.98828 2.69336 5.16797L1.04102 4.875L1.45703 0.269531H6.79492V1.78125H2.98047L2.75781 3.9668H2.80469C2.96094 3.75195 3.19336 3.57422 3.50195 3.43359C3.81055 3.29297 4.15625 3.22266 4.53906 3.22266C5.06641 3.22266 5.53516 3.3457 5.94531 3.5918C6.35938 3.83789 6.68359 4.17578 6.91797 4.60547C7.15625 5.03516 7.27539 5.5293 7.27539 6.08789C7.27539 6.67383 7.13867 7.19531 6.86523 7.65234C6.5918 8.10938 6.21094 8.46875 5.72266 8.73047C5.23438 8.98828 4.66797 9.11719 4.02344 9.11719Z" fill="white"/>
</svg>
