<svg width="8" height="10" viewBox="0 0 8 10" fill="none" xmlns="http://www.w3.org/2000/svg">
<path d="M4.11133 9.11719C3.66211 9.11719 3.22852 9.04297 2.81055 8.89453C2.39648 8.74609 2.02344 8.50586 1.69141 8.17383C1.36328 7.8418 1.10352 7.40234 0.912109 6.85547C0.720703 6.30469 0.625 5.63086 0.625 4.83398C0.625 3.85742 0.769531 3.01953 1.05859 2.32031C1.35156 1.62109 1.76367 1.08594 2.29492 0.714844C2.82617 0.339844 3.45117 0.152344 4.16992 0.152344C4.75195 0.152344 5.26562 0.265625 5.71094 0.492188C6.15625 0.71875 6.51367 1.02539 6.7832 1.41211C7.05664 1.79492 7.22266 2.22656 7.28125 2.70703H5.4707C5.39648 2.40234 5.24414 2.16406 5.01367 1.99219C4.78711 1.82031 4.50586 1.73438 4.16992 1.73438C3.60352 1.73438 3.17188 1.98047 2.875 2.47266C2.58203 2.96484 2.43555 3.63672 2.43555 4.48828H2.49414C2.68945 4.10547 2.98438 3.80469 3.37891 3.58594C3.77344 3.36719 4.20898 3.25781 4.68555 3.25781C5.20508 3.25781 5.66602 3.37891 6.06836 3.62109C6.4707 3.86328 6.78711 4.19727 7.01758 4.62305C7.25195 5.04492 7.36914 5.5293 7.36914 6.07617C7.36914 6.66602 7.23242 7.19141 6.95898 7.65234C6.68555 8.10938 6.30469 8.46875 5.81641 8.73047C5.32812 8.98828 4.75977 9.11719 4.11133 9.11719ZM2.61719 6.12891C2.61719 6.41016 2.68164 6.66797 2.81055 6.90234C2.93945 7.13281 3.11523 7.31836 3.33789 7.45898C3.56055 7.5957 3.8125 7.66406 4.09375 7.66406C4.52344 7.66406 4.87891 7.51758 5.16016 7.22461C5.44531 6.92773 5.58789 6.56055 5.58789 6.12305C5.58789 5.69336 5.44727 5.33203 5.16602 5.03906C4.88867 4.74219 4.53711 4.59375 4.11133 4.59375C3.83008 4.59375 3.57617 4.66406 3.34961 4.80469C3.12305 4.94141 2.94336 5.12695 2.81055 5.36133C2.68164 5.5918 2.61719 5.84766 2.61719 6.12891Z" fill="white"/>
</svg>
