<svg width="8" height="10" viewBox="0 0 8 10" fill="none" xmlns="http://www.w3.org/2000/svg">
<path opacity="0.6" d="M3.99414 9.11719C3.33398 9.11719 2.75 9.00977 2.24219 8.79492C1.73438 8.58008 1.33594 8.28711 1.04688 7.91602C0.757812 7.54492 0.613281 7.12305 0.613281 6.65039C0.613281 6.28711 0.695312 5.95312 0.859375 5.64844C1.02734 5.34375 1.25391 5.08984 1.53906 4.88672C1.82812 4.68359 2.15039 4.55273 2.50586 4.49414V4.44141C2.03711 4.34375 1.65625 4.11523 1.36328 3.75586C1.07422 3.39648 0.929688 2.97852 0.929688 2.50195C0.929688 2.04883 1.0625 1.64648 1.32812 1.29492C1.59375 0.939453 1.95703 0.660156 2.41797 0.457031C2.87891 0.253906 3.4043 0.152344 3.99414 0.152344C4.58398 0.152344 5.10938 0.255859 5.57031 0.462891C6.03125 0.666016 6.39453 0.945312 6.66016 1.30078C6.92578 1.65234 7.05859 2.05273 7.05859 2.50195C7.05859 2.97852 6.91016 3.39648 6.61328 3.75586C6.32031 4.11523 5.94531 4.34375 5.48828 4.44141V4.49414C5.83594 4.55273 6.15234 4.68359 6.4375 4.88672C6.72656 5.08984 6.95508 5.34375 7.12305 5.64844C7.29492 5.95312 7.38086 6.28711 7.38086 6.65039C7.38086 7.12305 7.23438 7.54492 6.94141 7.91602C6.65234 8.28711 6.25195 8.58008 5.74023 8.79492C5.23242 9.00977 4.65039 9.11719 3.99414 9.11719ZM2.72852 2.69531C2.72852 3.03906 2.84766 3.32031 3.08594 3.53906C3.32422 3.75781 3.62695 3.86719 3.99414 3.86719C4.35742 3.86719 4.6582 3.75781 4.89648 3.53906C5.13867 3.32031 5.25977 3.03906 5.25977 2.69531C5.25977 2.35547 5.14062 2.08008 4.90234 1.86914C4.66797 1.6543 4.36523 1.54688 3.99414 1.54688C3.61914 1.54688 3.31445 1.65234 3.08008 1.86328C2.8457 2.07422 2.72852 2.35156 2.72852 2.69531ZM2.5293 6.50391C2.5293 6.875 2.66406 7.17773 2.93359 7.41211C3.20312 7.64648 3.55664 7.76367 3.99414 7.76367C4.43164 7.76367 4.78516 7.64648 5.05469 7.41211C5.32422 7.17773 5.45898 6.875 5.45898 6.50391C5.45898 6.12891 5.32031 5.82031 5.04297 5.57812C4.76562 5.33594 4.41602 5.21484 3.99414 5.21484C3.56836 5.21484 3.2168 5.33594 2.93945 5.57812C2.66602 5.81641 2.5293 6.125 2.5293 6.50391Z" fill="white"/>
</svg>
