<svg width="8" height="10" viewBox="0 0 8 10" fill="none" xmlns="http://www.w3.org/2000/svg">
<path opacity="0.6" d="M3.88867 0.140625C4.33789 0.140625 4.76953 0.216797 5.18359 0.369141C5.60156 0.517578 5.97461 0.759766 6.30273 1.0957C6.63086 1.42773 6.89062 1.86719 7.08203 2.41406C7.27344 2.96094 7.36914 3.63281 7.36914 4.42969C7.36914 5.41016 7.22266 6.25195 6.92969 6.95508C6.64062 7.6543 6.23047 8.19141 5.69922 8.56641C5.17188 8.94141 4.54883 9.12891 3.83008 9.12891C3.24805 9.12891 2.73242 9.01562 2.2832 8.78906C1.83789 8.55859 1.47852 8.24805 1.20508 7.85742C0.935547 7.4668 0.771484 7.03125 0.712891 6.55078H2.5293C2.59961 6.85938 2.75 7.10352 2.98047 7.2832C3.21094 7.45898 3.49414 7.54688 3.83008 7.54688C4.39648 7.54688 4.82617 7.29883 5.11914 6.80273C5.41602 6.30273 5.56445 5.62695 5.56445 4.77539H5.50586C5.31055 5.1582 5.01562 5.45898 4.62109 5.67773C4.22656 5.89648 3.79102 6.00586 3.31445 6.00586C2.79883 6.00586 2.33789 5.88477 1.93164 5.64258C1.52539 5.40039 1.20508 5.06641 0.970703 4.64062C0.740234 4.21484 0.625 3.73047 0.625 3.1875C0.625 2.59766 0.761719 2.07227 1.03516 1.61133C1.30859 1.15039 1.68945 0.789062 2.17773 0.527344C2.66992 0.265625 3.24023 0.136719 3.88867 0.140625ZM2.41211 3.14062C2.41211 3.57422 2.55078 3.9375 2.82812 4.23047C3.10938 4.52344 3.46289 4.66992 3.88867 4.66992C4.17383 4.66992 4.42773 4.60156 4.65039 4.46484C4.87695 4.32422 5.05469 4.13672 5.18359 3.90234C5.31641 3.66797 5.38281 3.41016 5.38281 3.12891C5.38281 2.85156 5.31836 2.59766 5.18945 2.36719C5.06055 2.13672 4.88477 1.95312 4.66211 1.81641C4.43945 1.67578 4.18555 1.60547 3.90039 1.60547C3.47461 1.60547 3.11914 1.75391 2.83398 2.05078C2.55273 2.34375 2.41211 2.70703 2.41211 3.14062Z" fill="white"/>
</svg>
