<svg width="8" height="10" viewBox="0 0 8 10" fill="none" xmlns="http://www.w3.org/2000/svg">
<path d="M4.66211 9.10547C4.31055 9.10547 4.01172 9.04688 3.76562 8.92969C3.52344 8.8125 3.32422 8.66602 3.16797 8.49023C3.01562 8.31055 2.89648 8.13086 2.81055 7.95117H2.72852V9H0.941406V0.269531H2.75781V3.55664H2.81055C2.89258 3.37695 3.00781 3.19531 3.15625 3.01172C3.30859 2.82812 3.50781 2.67578 3.75391 2.55469C4.00391 2.42969 4.31055 2.36719 4.67383 2.36719C5.1543 2.36719 5.59375 2.49219 5.99219 2.74219C6.39453 2.98828 6.7168 3.36133 6.95898 3.86133C7.20117 4.36133 7.32227 4.98633 7.32227 5.73633C7.32227 6.46289 7.20508 7.07812 6.9707 7.58203C6.73633 8.08203 6.41797 8.46094 6.01562 8.71875C5.61328 8.97656 5.16211 9.10547 4.66211 9.10547ZM2.7168 5.73047C2.7168 6.30859 2.83594 6.77539 3.07422 7.13086C3.31641 7.48633 3.65625 7.66406 4.09375 7.66406C4.53906 7.66406 4.87891 7.48438 5.11328 7.125C5.34766 6.76172 5.46484 6.29688 5.46484 5.73047C5.46484 5.16016 5.34766 4.69727 5.11328 4.3418C4.88281 3.98633 4.54297 3.80859 4.09375 3.80859C3.65625 3.80859 3.31641 3.98242 3.07422 4.33008C2.83594 4.67773 2.7168 5.14453 2.7168 5.73047Z" fill="white"/>
</svg>
