<svg width="8" height="8" viewBox="0 0 8 8" fill="none" xmlns="http://www.w3.org/2000/svg">
<path d="M4.15234 7.12891C3.48047 7.12891 2.9043 6.98633 2.42383 6.70117C1.94336 6.41602 1.57422 6.01953 1.31641 5.51172C1.0625 5.00391 0.935547 4.41797 0.935547 3.75391C0.935547 3.08203 1.06445 2.49219 1.32227 1.98438C1.58398 1.47656 1.95508 1.08008 2.43555 0.794922C2.91602 0.509766 3.48633 0.367188 4.14648 0.367188C4.7168 0.367188 5.2168 0.470703 5.64648 0.677734C6.07617 0.884766 6.41602 1.17578 6.66602 1.55078C6.91602 1.92578 7.05273 2.36719 7.07617 2.875H5.36523C5.31445 2.55078 5.1875 2.28906 4.98437 2.08984C4.78125 1.88672 4.51172 1.78516 4.17578 1.78516C3.75391 1.78516 3.41602 1.95508 3.16211 2.29492C2.9082 2.63086 2.78125 3.10938 2.78125 3.73047C2.78125 4.35547 2.90625 4.8418 3.15625 5.18945C3.41016 5.53711 3.75 5.71094 4.17578 5.71094C4.48828 5.71094 4.75195 5.61328 4.9668 5.41797C5.18164 5.22266 5.31445 4.94922 5.36523 4.59766H7.07617C7.04883 5.09766 6.91406 5.53906 6.67187 5.92188C6.42969 6.30078 6.09375 6.59766 5.66406 6.8125C5.23828 7.02344 4.73437 7.12891 4.15234 7.12891Z" fill="white"/>
</svg>
