<svg width="8" height="10" viewBox="0 0 8 10" fill="none" xmlns="http://www.w3.org/2000/svg">
<path d="M3.33789 9.10547C2.83789 9.10547 2.38672 8.97656 1.98437 8.71875C1.58203 8.46094 1.26367 8.08203 1.0293 7.58203C0.794922 7.07812 0.677734 6.46289 0.677734 5.73633C0.677734 4.98633 0.798828 4.36133 1.04102 3.86133C1.2832 3.36133 1.60547 2.98828 2.00781 2.74219C2.41016 2.49219 2.84961 2.36719 3.32617 2.36719C3.69336 2.36719 4 2.42969 4.24609 2.55469C4.49219 2.67578 4.69141 2.82812 4.84375 3.01172C4.99609 3.19531 5.11133 3.37695 5.18945 3.55664H5.24219V0.269531H7.05859V9H5.27148V7.95117H5.18945C5.10742 8.13086 4.98828 8.31055 4.83203 8.49023C4.67578 8.66602 4.47461 8.8125 4.22852 8.92969C3.98633 9.04688 3.68945 9.10547 3.33789 9.10547ZM5.2832 5.73047C5.2832 5.14453 5.16406 4.67773 4.92578 4.33008C4.6875 3.98242 4.34766 3.80859 3.90625 3.80859C3.45703 3.80859 3.11523 3.98633 2.88086 4.3418C2.65039 4.69727 2.53516 5.16016 2.53516 5.73047C2.53516 6.29688 2.65234 6.76172 2.88672 7.125C3.12109 7.48438 3.46094 7.66406 3.90625 7.66406C4.34375 7.66406 4.68164 7.48633 4.91992 7.13086C5.16211 6.77539 5.2832 6.30859 5.2832 5.73047Z" fill="white"/>
</svg>
