<svg width="8" height="8" viewBox="0 0 8 8" fill="none" xmlns="http://www.w3.org/2000/svg">
<path d="M4.11719 7.12891C3.44531 7.12891 2.86719 6.99219 2.38281 6.71875C1.89844 6.44531 1.52539 6.05664 1.26367 5.55273C1.00195 5.04492 0.871094 4.44531 0.871094 3.75391C0.871094 3.08203 1 2.49219 1.25781 1.98438C1.51953 1.47656 1.88672 1.08008 2.35937 0.794922C2.83203 0.509766 3.38867 0.367188 4.0293 0.367188C4.60742 0.367188 5.12891 0.490234 5.59375 0.736328C6.0625 0.982422 6.43359 1.35156 6.70703 1.84375C6.98437 2.33594 7.12305 2.95312 7.12305 3.69531V4.1875H2.6582C2.67773 4.68359 2.82227 5.07227 3.0918 5.35352C3.36133 5.63477 3.71289 5.77539 4.14648 5.77539C4.44727 5.77539 4.70508 5.71094 4.91992 5.58203C5.13867 5.45312 5.29492 5.26562 5.38867 5.01953L7.06445 5.13086C6.93555 5.73242 6.61328 6.2168 6.09766 6.58398C5.58594 6.94727 4.92578 7.12891 4.11719 7.12891ZM2.66992 3.06836H5.38281C5.33984 2.6543 5.20703 2.32617 4.98437 2.08398C4.76172 1.8418 4.44922 1.7207 4.04687 1.7207C3.64062 1.7207 3.31836 1.84766 3.08008 2.10156C2.8457 2.35156 2.70898 2.67383 2.66992 3.06836Z" fill="white"/>
</svg>
