<svg width="6" height="10" viewBox="0 0 6 10" fill="none" xmlns="http://www.w3.org/2000/svg">
<path d="M1.82812 10V4.82031H0.908203V3.44922H1.82812V2.97461C1.82812 2.26758 2.03125 1.73828 2.4375 1.38672C2.84766 1.03516 3.35937 0.859375 3.97266 0.859375C4.25391 0.859375 4.50977 0.882812 4.74023 0.929688C4.97461 0.972656 5.14648 1.00977 5.25586 1.04102L4.93359 2.40039C4.86328 2.38086 4.77734 2.36133 4.67578 2.3418C4.57422 2.32227 4.4668 2.3125 4.35352 2.3125C4.08789 2.3125 3.90039 2.375 3.79102 2.5C3.68555 2.62109 3.63281 2.79297 3.63281 3.01562V3.44922H4.93945V4.82031H3.63281V10H1.82812Z" fill="white"/>
</svg>
