<svg width="8" height="10" viewBox="0 0 8 10" fill="none" xmlns="http://www.w3.org/2000/svg">
<path d="M3.87109 9.58984C2.98828 9.58984 2.29492 9.41406 1.79102 9.0625C1.29102 8.71484 0.988281 8.28125 0.882812 7.76172L2.55859 7.53906C2.63281 7.73828 2.77539 7.91211 2.98633 8.06055C3.20117 8.20898 3.50977 8.2832 3.91211 8.2832C4.30664 8.2832 4.63281 8.1875 4.89062 7.99609C5.14844 7.80859 5.27734 7.49023 5.27734 7.04102V5.83984H5.19531C5.07812 6.11328 4.86719 6.35938 4.5625 6.57812C4.26172 6.79688 3.84961 6.90625 3.32617 6.90625C2.83789 6.90625 2.39258 6.79297 1.99023 6.56641C1.58789 6.33594 1.26758 5.98438 1.0293 5.51172C0.791016 5.03906 0.671875 4.44141 0.671875 3.71875C0.671875 2.97266 0.792969 2.35156 1.03516 1.85547C1.28125 1.35938 1.60547 0.988281 2.00781 0.742188C2.41016 0.492188 2.85156 0.367188 3.33203 0.367188C3.69531 0.367188 4.00195 0.429688 4.25195 0.554688C4.50195 0.675781 4.70312 0.828125 4.85547 1.01172C5.01172 1.19531 5.13086 1.37695 5.21289 1.55664H5.2832V0.449219H7.06445V7.07031C7.06445 7.625 6.92773 8.08984 6.6543 8.46484C6.38086 8.83984 6.00391 9.12109 5.52344 9.30859C5.04687 9.49609 4.49609 9.58984 3.87109 9.58984ZM2.5293 3.70703C2.5293 4.26953 2.64648 4.7168 2.88086 5.04883C3.11914 5.37695 3.46094 5.54102 3.90625 5.54102C4.34375 5.54102 4.68164 5.37891 4.91992 5.05469C5.16211 4.73047 5.2832 4.28125 5.2832 3.70703C5.2832 3.13281 5.16406 2.67383 4.92578 2.33008C4.6875 1.98242 4.34766 1.80859 3.90625 1.80859C3.45703 1.80859 3.11523 1.98633 2.88086 2.3418C2.64648 2.69336 2.5293 3.14844 2.5293 3.70703Z" fill="white"/>
</svg>
