<svg width="8" height="9" viewBox="0 0 8 9" fill="none" xmlns="http://www.w3.org/2000/svg">
<path d="M2.78711 5.21484V9H0.970703V0.269531H2.72852V3.61523H2.81055C2.95898 3.22852 3.19727 2.92383 3.52539 2.70117C3.85742 2.47852 4.27148 2.36719 4.76758 2.36719C5.44727 2.36719 5.99414 2.58594 6.4082 3.02344C6.82227 3.46094 7.0293 4.06445 7.0293 4.83398V9H5.21875V5.15625C5.21875 4.75 5.11719 4.43555 4.91406 4.21289C4.71094 3.98633 4.41992 3.87305 4.04102 3.87305C3.67383 3.87305 3.37305 3.99219 3.13867 4.23047C2.9043 4.46484 2.78711 4.79297 2.78711 5.21484Z" fill="white"/>
</svg>
