<svg width="3" height="13" viewBox="0 0 3 13" fill="none" xmlns="http://www.w3.org/2000/svg">
<path d="M1.0918 3.44922H2.9082V10.3281C2.9082 11.082 2.68555 11.623 2.24023 11.9512C1.79883 12.2832 1.19336 12.4492 0.423828 12.4492H0.0605469V11.0312H0.294922C0.587891 11.0312 0.792969 10.9688 0.910156 10.8438C1.03125 10.7227 1.0918 10.541 1.0918 10.2988V3.44922ZM1.99414 2.61133C1.72461 2.61133 1.49219 2.52148 1.29687 2.3418C1.10547 2.16211 1.00977 1.94531 1.00977 1.69141C1.00977 1.4375 1.10547 1.22266 1.29687 1.04688C1.49219 0.867187 1.72461 0.777344 1.99414 0.777344C2.26367 0.777344 2.49414 0.867187 2.68555 1.04688C2.88086 1.22266 2.97852 1.4375 2.97852 1.69141C2.97852 1.94531 2.88086 2.16211 2.68555 2.3418C2.49414 2.52148 2.26367 2.61133 1.99414 2.61133Z" fill="white"/>
</svg>
