<svg width="10" height="7" viewBox="0 0 10 7" fill="none" xmlns="http://www.w3.org/2000/svg">
<path d="M0.242187 7V0.449219H1.96484V1.61523H2.04687C2.18359 1.22852 2.41211 0.923828 2.73242 0.701172C3.05273 0.478516 3.43359 0.367188 3.875 0.367188C4.32422 0.367188 4.70508 0.480469 5.01758 0.707031C5.33398 0.929688 5.54297 1.23242 5.64453 1.61523H5.71484C5.85156 1.23633 6.09375 0.933594 6.44141 0.707031C6.79297 0.480469 7.20898 0.367188 7.68945 0.367188C8.29883 0.367188 8.79492 0.560547 9.17773 0.947266C9.56445 1.33398 9.75781 1.88281 9.75781 2.59375V7H7.94141V2.95703C7.94141 2.58984 7.84375 2.31641 7.64844 2.13672C7.45703 1.95703 7.2168 1.86719 6.92773 1.86719C6.59961 1.86719 6.3418 1.97266 6.1543 2.18359C5.9707 2.39062 5.87891 2.66406 5.87891 3.00391V7H4.11523V2.91016C4.11523 2.59375 4.02344 2.3418 3.83984 2.1543C3.66016 1.96289 3.42187 1.86719 3.125 1.86719C2.82031 1.86719 2.56641 1.97852 2.36328 2.20117C2.16016 2.41992 2.05859 2.71094 2.05859 3.07422V7H0.242187Z" fill="white"/>
</svg>
