<svg width="8" height="7" viewBox="0 0 8 7" fill="none" xmlns="http://www.w3.org/2000/svg">
<path d="M2.79883 3.21484V7H0.982422V0.449219H2.76953V1.61523H2.83398C2.98242 1.23242 3.21875 0.929688 3.54297 0.707031C3.86719 0.480469 4.27148 0.367188 4.75586 0.367188C5.43945 0.367188 5.98633 0.587891 6.39648 1.0293C6.81055 1.4668 7.01758 2.06836 7.01758 2.83398V7H5.20117V3.15625C5.20117 2.75391 5.09766 2.43945 4.89062 2.21289C4.6875 1.98633 4.4043 1.87305 4.04102 1.87305C3.67383 1.87305 3.375 1.99219 3.14453 2.23047C2.91406 2.46484 2.79883 2.79297 2.79883 3.21484Z" fill="white"/>
</svg>
