<svg width="8" height="8" viewBox="0 0 8 8" fill="none" xmlns="http://www.w3.org/2000/svg">
<path d="M3.99414 7.12891C3.33398 7.12891 2.76172 6.98828 2.27734 6.70703C1.79687 6.42188 1.42578 6.02734 1.16406 5.52344C0.90625 5.01562 0.777344 4.42578 0.777344 3.75391C0.777344 3.07812 0.90625 2.48633 1.16406 1.97852C1.42578 1.4707 1.79687 1.07617 2.27734 0.794922C2.76172 0.509766 3.33398 0.367188 3.99414 0.367188C4.6582 0.367188 5.23047 0.509766 5.71094 0.794922C6.19531 1.07617 6.56641 1.4707 6.82422 1.97852C7.08594 2.48633 7.2168 3.07812 7.2168 3.75391C7.2168 4.42578 7.08594 5.01562 6.82422 5.52344C6.56641 6.02734 6.19531 6.42188 5.71094 6.70703C5.23047 6.98828 4.6582 7.12891 3.99414 7.12891ZM2.62305 3.74219C2.62305 4.3125 2.73828 4.7832 2.96875 5.1543C3.19922 5.52539 3.54297 5.71094 4 5.71094C4.45312 5.71094 4.79492 5.52539 5.02539 5.1543C5.25586 4.7832 5.37109 4.3125 5.37109 3.74219C5.37109 3.17188 5.25586 2.70312 5.02539 2.33594C4.79492 1.96875 4.45312 1.78516 4 1.78516C3.54297 1.78516 3.19922 1.96875 2.96875 2.33594C2.73828 2.70312 2.62305 3.17188 2.62305 3.74219Z" fill="white"/>
</svg>
