<svg width="8" height="10" viewBox="0 0 8 10" fill="none" xmlns="http://www.w3.org/2000/svg">
<path d="M0.941406 9.44922V0.449219H2.72852V1.55664H2.81055C2.89258 1.37695 3.00781 1.19531 3.15625 1.01172C3.30859 0.828125 3.50781 0.675781 3.75391 0.554688C4.00391 0.429688 4.31055 0.367188 4.67383 0.367188C5.1543 0.367188 5.59375 0.492188 5.99219 0.742188C6.39453 0.988281 6.7168 1.36133 6.95898 1.86133C7.20117 2.36133 7.32227 2.98633 7.32227 3.73633C7.32227 4.46289 7.20508 5.07812 6.9707 5.58203C6.73633 6.08203 6.41797 6.46094 6.01562 6.71875C5.61328 6.97656 5.16211 7.10547 4.66211 7.10547C4.31055 7.10547 4.01172 7.04688 3.76562 6.92969C3.52344 6.8125 3.32422 6.66602 3.16797 6.49023C3.01562 6.31055 2.89648 6.13086 2.81055 5.95117H2.75781V9.44922H0.941406ZM2.7168 3.73047C2.7168 4.30859 2.83594 4.77539 3.07422 5.13086C3.31641 5.48633 3.65625 5.66406 4.09375 5.66406C4.53906 5.66406 4.87891 5.48438 5.11328 5.125C5.34766 4.76172 5.46484 4.29688 5.46484 3.73047C5.46484 3.16016 5.34766 2.69727 5.11328 2.3418C4.88281 1.98633 4.54297 1.80859 4.09375 1.80859C3.65625 1.80859 3.31641 1.98242 3.07422 2.33008C2.83594 2.67773 2.7168 3.14453 2.7168 3.73047Z" fill="white"/>
</svg>
