<svg width="8" height="10" viewBox="0 0 8 10" fill="none" xmlns="http://www.w3.org/2000/svg">
<path d="M7.05859 9.44922H5.24219V5.95117H5.18945C5.10742 6.13086 4.98828 6.31055 4.83203 6.49023C4.67578 6.66602 4.47461 6.8125 4.22852 6.92969C3.98633 7.04688 3.68945 7.10547 3.33789 7.10547C2.83789 7.10547 2.38672 6.97656 1.98437 6.71875C1.58203 6.46094 1.26367 6.08203 1.0293 5.58203C0.794922 5.07812 0.677734 4.46289 0.677734 3.73633C0.677734 2.98633 0.798828 2.36133 1.04102 1.86133C1.2832 1.36133 1.60547 0.988281 2.00781 0.742188C2.41016 0.492188 2.84961 0.367188 3.32617 0.367188C3.69336 0.367188 4 0.429688 4.24609 0.554688C4.49219 0.675781 4.69141 0.828125 4.84375 1.01172C4.99609 1.19531 5.11133 1.37695 5.18945 1.55664H5.27148V0.449219H7.05859V9.44922ZM5.2832 3.73047C5.2832 3.14453 5.16406 2.67773 4.92578 2.33008C4.6875 1.98242 4.34766 1.80859 3.90625 1.80859C3.45703 1.80859 3.11523 1.98633 2.88086 2.3418C2.65039 2.69727 2.53516 3.16016 2.53516 3.73047C2.53516 4.29688 2.65234 4.76172 2.88672 5.125C3.12109 5.48438 3.46094 5.66406 3.90625 5.66406C4.34375 5.66406 4.68164 5.48633 4.91992 5.13086C5.16211 4.77539 5.2832 4.30859 5.2832 3.73047Z" fill="white"/>
</svg>
