<svg width="6" height="8" viewBox="0 0 6 8" fill="none" xmlns="http://www.w3.org/2000/svg">
<path d="M5.79492 2.31836L4.14258 2.41797C4.0957 2.21094 3.97852 2.0332 3.79102 1.88477C3.60742 1.73242 3.35742 1.65625 3.04102 1.65625C2.75977 1.65625 2.52344 1.71484 2.33203 1.83203C2.14062 1.94922 2.04492 2.10547 2.04492 2.30078C2.04492 2.45703 2.10742 2.58984 2.23242 2.69922C2.35742 2.80859 2.57031 2.89648 2.87109 2.96289L4.06055 3.19727C5.31836 3.44727 5.94727 4.03711 5.94727 4.9668C5.94727 5.40039 5.82227 5.7793 5.57227 6.10352C5.32227 6.42773 4.97852 6.67969 4.54102 6.85938C4.10352 7.03906 3.60156 7.12891 3.03516 7.12891C2.16797 7.12891 1.47852 6.94922 0.966797 6.58984C0.455078 6.22656 0.154297 5.73242 0.0644531 5.10742L1.8457 5.01367C1.9668 5.55273 2.36523 5.82227 3.04102 5.82227C3.35742 5.82227 3.61328 5.75977 3.80859 5.63477C4.00391 5.50977 4.10156 5.35156 4.10156 5.16016C4.10156 4.83594 3.82227 4.61719 3.26367 4.50391L2.13281 4.26953C0.871094 4.01562 0.240234 3.39453 0.240234 2.40625C0.240234 1.77344 0.492188 1.27539 0.996094 0.912109C1.50391 0.548828 2.17578 0.367188 3.01172 0.367188C3.83984 0.367188 4.49219 0.542969 4.96875 0.894531C5.44531 1.24219 5.7207 1.7168 5.79492 2.31836Z" fill="white"/>
</svg>
