<svg width="6" height="8" viewBox="0 0 6 8" fill="none" xmlns="http://www.w3.org/2000/svg">
<path d="M4.18945 4.2168V0.449219H6.00586V7H4.25977V5.81055H4.18945C4.04492 6.19336 3.80078 6.50195 3.45703 6.73633C3.11719 6.9707 2.70117 7.08594 2.20898 7.08203C1.54883 7.08594 1.01367 6.86914 0.603516 6.43164C0.197266 5.99023 -0.00585938 5.38672 -0.00585938 4.62109V0.449219H1.81055V4.30469C1.81055 4.6875 1.91406 4.99219 2.12109 5.21875C2.32812 5.44141 2.60352 5.55078 2.94727 5.54688C3.27148 5.55078 3.55859 5.43945 3.80859 5.21289C4.0625 4.98633 4.18945 4.6543 4.18945 4.2168Z" fill="white"/>
</svg>
